# xmcd CD database file
#
# Track frame offsets:
#	150
#	25266
#	46807
#	60856
#	84350
#	94240
#	126964
#	141258
#	155317
#	177099
#	187933
#	200362
#	224563
#
# Disc length: 3320 seconds
#
# Revision: 0
# Processed by: cddbd v1.5.1PL2 Copyright (c) Steve Scherf et al.
# Submitted via: CDex 1.51
#
DISCID=a90cf60d
DTITLE=Stevie Ray Vaughan and Double Trouble - Live At The Canergie Hall
DYEAR=1997
DGENRE=Blues
TTITLE0=Intro
TTITLE1=Scuttle Buttin'
TTITLE2=Testify
TTITLE3=Love Struck Baby
TTITLE4=Honey Bee
TTITLE5=Cold Shot
TTITLE6=Letter to My Girlfriend
TTITLE7=Dirty Pool
TTITLE8=Pride and Joy
TTITLE9=The Things That I Used to Do
TTITLE10=C.O.D.
TTITLE11=Iced Over
TTITLE12=Lenny
EXTD=YEAR: 1997
EXTT0=
EXTT1=
EXTT2=
EXTT3=
EXTT4=
EXTT5=
EXTT6=
EXTT7=
EXTT8=
EXTT9=
EXTT10=
EXTT11=
EXTT12=
PLAYORDER=
